<?xml version="1.0" encoding="UTF-8" standalone="no"?>
<!DOCTYPE svg PUBLIC "-//W3C//DTD SVG 1.1//EN" "http://www.w3.org/Graphics/SVG/1.1/DTD/svg11.dtd">
<!-- Created with Vectornator (http://vectornator.io/) -->
<svg height="100%" stroke-miterlimit="10" style="fill-rule:nonzero;clip-rule:evenodd;stroke-linecap:round;stroke-linejoin:round;" version="1.1" viewBox="0 0 1920 1080" width="100%" xml:space="preserve" xmlns="http://www.w3.org/2000/svg" xmlns:vectornator="http://vectornator.io" xmlns:xlink="http://www.w3.org/1999/xlink">
<defs/>
<g id="Layer-1" vectornator:layerName="Layer 1">
<path d="M622.636 539.81L587.365 539.81L587.365 479.555L535.285 479.555L535.285 539.81L500.014 539.81L500.014 403.043L535.285 403.043L535.285 453.102L587.365 453.102L587.365 403.043L622.636 403.043L622.636 539.81Z" fill="#1e3256" fill-rule="nonzero" opacity="1" stroke="none"/>
<path d="M790.541 471.472C790.541 493.272 784.295 510.586 771.803 523.415C759.312 536.243 742.043 542.658 719.999 542.658C698.016 542.658 680.778 536.243 668.287 523.415C655.795 510.586 649.549 493.272 649.549 471.472C649.549 449.489 655.795 432.114 668.287 419.347C680.778 406.579 698.016 400.196 719.999 400.196C741.921 400.196 759.159 406.579 771.712 419.347C784.265 432.114 790.541 449.489 790.541 471.472ZM743.789 506.101C747.218 501.937 749.759 497.023 751.412 491.358C753.066 485.694 753.892 479.035 753.892 471.381C753.892 463.175 752.943 456.194 751.045 450.438C749.147 444.682 746.667 440.029 743.605 436.477C740.482 432.803 736.884 430.139 732.812 428.486C728.74 426.833 724.5 426.006 720.091 426.006C715.621 426.006 711.411 426.802 707.461 428.394C703.512 429.986 699.884 432.619 696.577 436.293C693.515 439.722 691.02 444.453 689.091 450.484C687.162 456.516 686.198 463.512 686.198 471.472C686.198 479.617 687.132 486.551 688.999 492.277C690.867 498.002 693.331 502.671 696.393 506.284C699.455 509.897 703.037 512.561 707.14 514.275C711.243 515.99 715.56 516.847 720.091 516.847C724.622 516.847 728.939 515.975 733.042 514.229C737.145 512.484 740.727 509.775 743.789 506.101Z" fill="#1e3256" fill-rule="nonzero" opacity="1" stroke="none"/>
<path d="M937.779 403.043L887.353 486.904L887.353 539.81L852.082 539.81L852.082 488.557L800.829 403.043L840.876 403.043L870.452 455.95L899.018 403.043L937.779 403.043Z" fill="#1e3256" fill-rule="nonzero" opacity="1" stroke="none"/>
<path d="M1032.75 444.927C1032.75 441.498 1032.05 438.559 1030.64 436.11C1029.23 433.66 1026.81 431.731 1023.39 430.323C1021 429.343 1018.21 428.746 1015.03 428.532C1011.84 428.317 1008.14 428.21 1003.91 428.21L991.145 428.21L991.145 465.043L1001.98 465.043C1007.62 465.043 1012.33 464.767 1016.13 464.216C1019.93 463.665 1023.11 462.41 1025.68 460.45C1028.13 458.552 1029.92 456.455 1031.05 454.158C1032.19 451.862 1032.75 448.785 1032.75 444.927ZM1087.77 539.81L1044.69 539.81L1007.4 489.659L991.145 489.659L991.145 539.81L956.058 539.81L956.058 403.043L1015.21 403.043C1023.29 403.043 1030.24 403.502 1036.06 404.421C1041.88 405.339 1047.33 407.329 1052.41 410.391C1057.55 413.453 1061.64 417.418 1064.67 422.286C1067.7 427.154 1069.22 433.262 1069.22 440.61C1069.22 450.714 1066.88 458.95 1062.19 465.318C1057.51 471.687 1050.82 476.984 1042.12 481.209L1087.77 539.81Z" fill="#1e3256" fill-rule="nonzero" opacity="1" stroke="none"/>
<path d="M1229.59 539.81L1193.13 539.81L1183.67 512.163L1132.96 512.163L1123.5 539.81L1087.96 539.81L1138.48 403.043L1179.07 403.043L1229.59 539.81ZM1175.12 487.087L1158.32 438.038L1141.51 487.087L1175.12 487.087Z" fill="#1e3256" fill-rule="nonzero" opacity="1" stroke="none"/>
<path d="M1376.92 539.81L1333.66 539.81L1292.79 485.067L1284.52 495.078L1284.52 539.81L1249.25 539.81L1249.25 403.043L1284.52 403.043L1284.52 464.951L1333.38 403.043L1374.26 403.043L1320.8 466.329L1376.92 539.81Z" fill="#1e3256" fill-rule="nonzero" opacity="1" stroke="none"/>
<path d="M449.062 371.312L1413.78 371.312L1413.78 566.512L449.062 566.512L449.062 371.312Z" fill="none" opacity="1" stroke="#9c1c10" stroke-linecap="round" stroke-linejoin="round" stroke-width="20.4117"/>
</g>
</svg>
